<svg width="422" height="422" viewBox="0 0 422 422" fill="none" xmlns="http://www.w3.org/2000/svg">
<g clip-path="url(#clip0_249_20786)">
<path d="M99.4323 335.71C110.655 335.71 119.753 326.612 119.753 315.389C119.753 304.166 110.655 295.068 99.4323 295.068C88.2093 295.068 79.1113 304.166 79.1113 315.389C79.1113 326.612 88.2093 335.71 99.4323 335.71Z" fill="white"/>
<path d="M173.947 335.71C185.17 335.71 194.268 326.612 194.268 315.389C194.268 304.166 185.17 295.068 173.947 295.068C162.724 295.068 153.626 304.166 153.626 315.389C153.626 326.612 162.724 335.71 173.947 335.71Z" fill="white"/>
<path d="M247.104 335.71C258.327 335.71 267.425 326.612 267.425 315.389C267.425 304.166 258.327 295.068 247.104 295.068C235.881 295.068 226.783 304.166 226.783 315.389C226.783 326.612 235.881 335.71 247.104 335.71Z" fill="white"/>
<path d="M328.389 335.71C339.612 335.71 348.71 326.612 348.71 315.389C348.71 304.166 339.612 295.068 328.389 295.068C317.166 295.068 308.068 304.166 308.068 315.389C308.068 326.612 317.166 335.71 328.389 335.71Z" fill="white"/>
<path d="M247.104 266.609C258.327 266.609 267.425 257.511 267.425 246.288C267.425 235.065 258.327 225.967 247.104 225.967C235.881 225.967 226.783 235.065 226.783 246.288C226.783 257.511 235.881 266.609 247.104 266.609Z" fill="white"/>
<path d="M351.24 40.635H348.712C348.704 18.184 330.512 0 308.069 0C285.626 0 267.426 18.184 267.426 40.635H160.397C160.389 18.184 142.197 0 119.754 0C97.3106 0 79.1106 18.184 79.1106 40.635H69.7796C34.7376 40.635 6.39258 69.069 6.39258 104.03V104.071V357.666C6.39258 392.668 34.7446 421.061 69.7796 421.061H351.24C386.242 421.061 414.667 392.668 414.667 357.666V104.07V104.029C414.667 69.069 386.241 40.635 351.24 40.635ZM372.098 356.503C372.098 366.94 363.612 375.467 353.15 375.467H70.5436C60.0826 375.467 51.5636 366.94 51.5636 356.503V192.769H372.098V356.503V356.503Z" fill="white"/>
<path d="M328.389 266.609C339.612 266.609 348.71 257.511 348.71 246.288C348.71 235.065 339.612 225.967 328.389 225.967C317.166 225.967 308.068 235.065 308.068 246.288C308.068 257.511 317.166 266.609 328.389 266.609Z" fill="white"/>
</g>
<defs>
<clipPath id="clip0_249_20786">
<rect width="421.06" height="421.06" fill="white"/>
</clipPath>
</defs>
</svg>
