<svg width="330" height="330" viewBox="0 0 330 330" fill="none" xmlns="http://www.w3.org/2000/svg">
<g clip-path="url(#clip0_252_20891)">
<path d="M115.604 278.4C121.554 283.624 127.696 289.014 134.014 294.602C134.057 294.64 134.101 294.679 134.145 294.717L155.163 312.872C157.979 315.305 161.474 316.521 164.969 316.521C168.464 316.521 171.96 315.304 174.776 312.872L195.79 294.717C195.834 294.679 195.877 294.641 195.92 294.603C237.527 257.807 268.722 229.637 291.291 202.163C317.651 170.075 329.929 141.062 329.929 110.858C329.929 56.212 287.124 13.407 232.48 13.407C207.92 13.407 183.653 22.655 164.969 38.686C146.28 22.654 122.013 13.407 97.452 13.407C42.806 13.406 0 56.212 0 110.857C0 176.912 45.99 217.286 115.604 278.4ZM104.964 134.965H144.963V94.964H184.964V134.965H224.964V174.965H184.964V214.964H144.963V174.965H104.964V134.965Z" fill="white"/>
</g>
<defs>
<clipPath id="clip0_252_20891">
<rect width="329.928" height="329.928" fill="white"/>
</clipPath>
</defs>
</svg>
