<?xml version="1.0" standalone="no"?>
<!DOCTYPE svg PUBLIC "-//W3C//DTD SVG 20010904//EN"
 "http://www.w3.org/TR/2001/REC-SVG-20010904/DTD/svg10.dtd">
<svg version="1.0" xmlns="http://www.w3.org/2000/svg"
 width="431.000000pt" height="437.000000pt" viewBox="0 0 431.000000 437.000000"
 preserveAspectRatio="xMidYMid meet">

<g transform="translate(0.000000,437.000000) scale(0.100000,-0.100000)"
fill="#000000" stroke="none">
<path d="M355 4141 c-49 -29 -83 -77 -90 -124 -3 -23 -5 -868 -3 -1878 l3
-1836 29 -37 c15 -21 42 -46 60 -57 30 -18 60 -19 764 -19 713 0 734 1 772 20
122 62 122 238 0 300 -38 19 -59 20 -660 20 l-620 0 0 1645 0 1645 1310 0
1310 0 0 -898 0 -898 23 -44 c31 -63 76 -90 147 -90 66 0 110 24 147 79 l23
34 0 1014 c0 1121 4 1056 -66 1109 l-37 29 -1541 3 c-1487 2 -1542 1 -1571
-17z"/>
<path d="M1140 3208 c-65 -45 -90 -106 -76 -183 9 -48 68 -112 114 -125 50
-14 1484 -14 1534 0 46 13 105 77 114 125 14 77 -11 138 -76 183 l-33 22 -772
0 -772 0 -33 -22z"/>
<path d="M1149 2337 c-120 -63 -117 -243 4 -301 32 -14 111 -16 792 -16 841 0
799 -3 852 67 62 81 32 208 -60 252 -43 21 -52 21 -794 21 l-750 0 -44 -23z"/>
<path d="M3882 1703 c-29 -14 -371 -386 -812 -884 -52 -59 -99 -108 -104 -108
-5 -1 -106 93 -225 208 -119 114 -231 216 -250 226 -25 12 -49 16 -88 13 -89
-8 -143 -62 -151 -151 -3 -37 1 -65 12 -88 16 -34 573 -577 628 -613 39 -25
114 -25 160 0 20 10 80 69 135 129 726 809 892 995 910 1020 26 37 37 92 28
135 -8 37 -56 95 -96 116 -37 19 -106 18 -147 -3z"/>
<path d="M1152 1493 c-54 -27 -85 -76 -89 -141 -5 -75 24 -128 87 -159 42 -22
55 -23 295 -23 241 0 251 1 290 23 59 33 85 78 85 147 0 63 -22 106 -73 144
-27 20 -42 21 -295 24 -232 2 -271 0 -300 -15z"/>
</g>
</svg>
