<svg width="360" height="360" viewBox="0 0 360 360" fill="none" xmlns="http://www.w3.org/2000/svg">
<g clip-path="url(#clip0_252_20909)">
<path d="M115.604 293.4C121.554 298.624 127.695 304.014 134.014 309.602C134.057 309.641 134.101 309.679 134.145 309.717L155.163 327.872C157.979 330.305 161.474 331.52 164.969 331.52C168.464 331.52 171.959 330.303 174.776 327.871L193.545 311.655C210.821 324.146 232.028 331.52 254.929 331.52C312.826 331.52 359.929 284.417 359.929 226.52C359.929 196.57 347.322 169.511 327.14 150.365C328.982 142.244 329.929 134.037 329.929 125.856C329.929 71.21 287.124 28.405 232.48 28.405C207.919 28.405 183.653 37.654 164.968 53.684C146.28 37.652 122.013 28.405 97.452 28.405C42.806 28.406 0 71.212 0 125.857C0 191.912 45.99 232.286 115.604 293.4ZM254.928 151.521C296.283 151.521 329.928 185.167 329.928 226.521C329.928 267.875 296.283 301.521 254.928 301.521C213.573 301.521 179.928 267.875 179.928 226.521C179.928 185.167 213.572 151.521 254.928 151.521Z" fill="white"/>
<path d="M231.321 260.128C234.25 263.058 238.089 264.522 241.927 264.522C245.766 264.522 249.605 263.058 252.533 260.128L297.533 215.128C303.391 209.27 303.391 199.773 297.533 193.915C291.676 188.057 282.178 188.057 276.32 193.915L241.927 228.308L232.533 218.915C226.676 213.057 217.178 213.057 211.32 218.915C205.462 224.772 205.462 234.27 211.32 240.128L231.321 260.128Z" fill="white"/>
</g>
<defs>
<clipPath id="clip0_252_20909">
<rect width="359.928" height="359.928" fill="white"/>
</clipPath>
</defs>
</svg>
