<svg width="453" height="453" viewBox="0 0 453 453" fill="none" xmlns="http://www.w3.org/2000/svg">
<g clip-path="url(#clip0_252_20852)">
<path d="M403.109 16.447H49.63C22.211 16.447 0 38.671 0 66.077V290.998C0 318.404 22.211 340.628 49.63 340.628H68.855L29.602 419.366C26.793 423.776 27.462 429.524 31.188 433.149C33.313 435.244 36.093 436.292 38.887 436.292C40.984 436.292 43.137 435.681 45.015 434.429L208.546 340.628H403.109C430.529 340.628 452.739 318.404 452.739 290.998V66.077C452.739 38.671 430.528 16.447 403.109 16.447ZM124.311 210.947C106.086 210.947 91.311 196.172 91.311 177.947C91.311 159.722 106.086 144.947 124.311 144.947C142.537 144.947 157.311 159.722 157.311 177.947C157.311 196.172 142.536 210.947 124.311 210.947ZM226.37 210.947C208.144 210.947 193.37 196.172 193.37 177.947C193.37 159.722 208.144 144.947 226.37 144.947C244.595 144.947 259.37 159.722 259.37 177.947C259.37 196.172 244.595 210.947 226.37 210.947ZM328.428 210.947C310.203 210.947 295.428 196.172 295.428 177.947C295.428 159.722 310.203 144.947 328.428 144.947C346.653 144.947 361.428 159.722 361.428 177.947C361.428 196.172 346.654 210.947 328.428 210.947Z" fill="white"/>
</g>
<defs>
<clipPath id="clip0_252_20852">
<rect width="452.739" height="452.739" fill="white"/>
</clipPath>
</defs>
</svg>
