<svg width="512" height="512" viewBox="0 0 512 512" fill="none" xmlns="http://www.w3.org/2000/svg">
<path d="M468 112H416V416C416 424.487 419.371 432.626 425.373 438.627C431.374 444.629 439.513 448 448 448C456.487 448 464.626 444.629 470.627 438.627C476.629 432.626 480 424.487 480 416V124C480 120.817 478.736 117.765 476.485 115.515C474.235 113.264 471.183 112 468 112Z" fill="white"/>
<path d="M431.15 477.75C417.615 474.037 405.673 465.986 397.156 454.831C388.638 443.676 384.017 430.035 384 416V44C384 40.8174 382.736 37.7652 380.485 35.5147C378.235 33.2643 375.183 32 372 32H44C40.8174 32 37.7652 33.2643 35.5147 35.5147C33.2643 37.7652 32 40.8174 32 44V424C32 438.852 37.9 453.096 48.402 463.598C58.9041 474.1 73.1479 480 88 480H430.85C431.134 480.011 431.411 479.916 431.628 479.733C431.845 479.55 431.986 479.293 432.024 479.012C432.061 478.73 431.993 478.445 431.831 478.212C431.669 477.978 431.427 477.814 431.15 477.75V477.75ZM96 208V112H192V208H96ZM320 400H96V368H320V400ZM320 336H96V304H320V336ZM320 272H96V240H320V272ZM320 208H224V176H320V208ZM320 144H224V112H320V144Z" fill="white"/>
</svg>
