<svg width="309" height="309" viewBox="0 0 309 309" fill="none" xmlns="http://www.w3.org/2000/svg">
<g clip-path="url(#clip0_252_20869)">
<path d="M85.6652 38.073H38.0732V85.665H85.6652V38.073Z" fill="white"/>
<path d="M85.6652 223.002H38.0732V270.594H85.6652V223.002Z" fill="white"/>
<path d="M0 163.852V184.928V198.526V308.667H123.739V242.038H152.294V272.633V274.673V307.307H186.968V278.752H214.163V307.307H248.837V274.673H273.993V307.307H308.667V272.633H276.033V239.999H241.359V272.633H218.58V205.325H186.968V176.77H219.602V209.404H254.276V187.648H273.993V201.926V220.283V236.6H308.667V220.283V201.926V185.609H286.911V155.014H308.667V123.739V120.34V0H184.928V0.228H152.294V38.073H123.739V0H0V109.461V123.739V144.135H21.756V163.852H0V163.852ZM101.982 286.911H21.756V206.685H101.982V286.911ZM154.333 209.404H183.911V239.999H154.333V209.404ZM154.333 144.135H181.866V174.73H154.333V144.135V144.135ZM273.993 152.974H255.293V142.096H186.967V123.739H273.992V152.974H273.993ZM206.684 21.756H286.91V101.982H206.684V21.756V21.756ZM184.928 109.461H154.333V41.701H184.928V109.461ZM152.294 142.096H123.826V111.501H152.294V142.096ZM21.756 21.756H101.982V101.982H21.756V21.756ZM89.152 123.739V144.135H119.66V176.769H152.294V207.364H123.739V184.928H34.674V176.769H54.391H56.431H89.065V142.095H56.43H54.39H34.674V123.738H89.152V123.739Z" fill="white"/>
<path d="M270.594 38.073H223.002V85.665H270.594V38.073Z" fill="white"/>
</g>
<defs>
<clipPath id="clip0_252_20869">
<rect width="308.667" height="308.667" fill="white"/>
</clipPath>
</defs>
</svg>
