<svg width="512" height="512" viewBox="0 0 512 512" fill="none" xmlns="http://www.w3.org/2000/svg">
<g clip-path="url(#clip0_251_20810)">
<path d="M422.863 451.174C422.716 451.321 422.57 451.467 422.426 451.61C422.282 451.754 422.141 451.895 422.003 452.033C422.307 451.73 422.591 451.446 422.863 451.174Z" fill="white"/>
<path d="M426.138 447.898C426.033 448.003 425.921 448.115 425.804 448.232C425.687 448.349 425.565 448.472 425.438 448.599C425.713 448.325 425.936 448.101 426.138 447.898Z" fill="white"/>
<path d="M427.106 446.93C427.09 446.946 427.063 446.973 427.025 447.011C427.113 446.923 427.141 446.895 427.106 446.93Z" fill="white"/>
<path d="M420.873 453.164C420.763 453.274 420.659 453.378 420.562 453.475C420.465 453.572 420.375 453.662 420.293 453.744C420.489 453.548 420.686 453.35 420.873 453.164Z" fill="white"/>
<path d="M471.539 227.517V235.768H422.756C418.994 204.575 406.659 175.985 388.17 152.439L422.715 117.894L428.551 123.73C447.426 142.605 476.049 114.004 457.161 95.12C456.104 94.063 455.148 93.107 454.28 92.239C454.165 92.124 454.06 92.019 453.949 91.908C453.847 91.806 453.711 91.67 453.557 91.516C453.622 91.581 453.689 91.648 453.746 91.705C453.592 91.551 453.44 91.399 453.292 91.251C453.251 91.21 453.206 91.165 453.166 91.125C453.048 91.007 452.93 90.889 452.816 90.775C451.759 89.718 450.062 88.021 447.516 85.475C447.14 85.099 446.948 84.907 446.92 84.879C441.327 79.286 431.966 69.925 416.88 54.839C397.98 35.939 369.342 64.524 388.27 83.449L394.106 89.285L359.561 123.83C336.015 105.34 307.424 93.005 276.232 89.244V40.461H284.483C311.216 40.461 311.244 0 284.483 0H227.519C200.786 0 200.758 40.461 227.519 40.461H235.77V89.244C204.577 93.006 175.987 105.341 152.441 123.83L117.895 89.285L123.731 83.449C142.636 64.548 114.045 35.916 95.121 54.839C92.883 57.077 91.091 58.869 89.665 60.295C85.497 64.463 75.554 74.406 54.84 95.12C35.935 114.022 64.603 142.579 83.45 123.73L89.286 117.894L123.831 152.439C105.341 175.985 93.006 204.576 89.245 235.768H40.461V227.517C40.461 200.784 0 200.756 0 227.517V284.481C0 311.214 40.461 311.242 40.461 284.481V276.23H89.244C93.006 307.423 105.341 336.013 123.83 359.559L89.285 394.104L83.449 388.268C64.548 369.369 35.91 397.953 54.839 416.878C55.896 417.935 56.852 418.891 57.72 419.759C63.096 425.135 64.986 427.025 65.08 427.119C70.673 432.712 80.034 442.073 95.12 457.159C114.02 476.059 142.661 447.477 123.73 428.549L117.894 422.713L152.439 388.168C175.985 406.658 204.575 418.993 235.768 422.754V471.537H227.517C200.784 471.537 200.756 511.998 227.517 511.998H284.481C311.214 511.998 311.242 471.537 284.481 471.537H276.23V422.754C307.423 418.992 336.013 406.657 359.559 388.168L394.104 422.713L388.268 428.549C369.363 447.451 398.031 476.006 416.878 457.159C417.951 456.086 418.921 455.116 419.799 454.238C419.662 454.375 419.87 454.167 420.561 453.476C420.829 453.208 421.172 452.865 421.599 452.438C421.848 452.189 422.118 451.919 422.426 451.611C423.293 450.744 424.412 449.625 425.804 448.233C426.213 447.824 426.647 447.39 427.106 446.931C432.697 441.34 442.061 431.976 457.158 416.879C476.063 397.978 447.472 369.346 428.548 388.269L422.712 394.105L388.167 359.56C406.657 336.014 418.992 307.424 422.753 276.231H471.536V284.482C471.536 311.215 511.997 311.243 511.997 284.482V227.518C512 200.784 471.539 200.757 471.539 227.517ZM219.572 268.96C194.936 268.96 174.965 248.988 174.965 224.353C174.965 199.718 194.937 179.746 219.572 179.746C244.207 179.746 264.179 199.718 264.179 224.353C264.179 248.988 244.208 268.96 219.572 268.96ZM292.428 319.935C277.236 319.935 264.921 307.62 264.921 292.428C264.921 277.236 277.236 264.921 292.428 264.921C307.62 264.921 319.935 277.236 319.935 292.428C319.935 307.62 307.62 319.935 292.428 319.935Z" fill="white"/>
<path d="M421.221 452.816C421.494 452.543 421.753 452.284 422.004 452.033C421.866 452.171 421.731 452.306 421.6 452.437C421.469 452.568 421.342 452.695 421.221 452.816Z" fill="white"/>
</g>
<defs>
<clipPath id="clip0_251_20810">
<rect width="511.999" height="511.999" fill="white"/>
</clipPath>
</defs>
</svg>
