<svg width="233" height="233" viewBox="0 0 233 233" fill="none" xmlns="http://www.w3.org/2000/svg">
<g clip-path="url(#clip0_251_20835)">
<path d="M166.828 56.565L164.23 32.702H176.754V0.002L92.7552 0V33.144L105.692 33.142L105.294 38.138L52.8313 22.179L5.15625 179.249L179.248 232.127L226.97 74.947L166.828 56.565ZM164.612 204.682L32.6392 164.593L67.5633 49.624L102.998 60.533L101.897 70.702H121.708L130.282 96.702H139.937L147.403 73.634L199.535 89.592L164.612 204.682ZM175.545 113.388L169.149 134.439L68.7573 103.937L75.1533 82.886L175.545 113.388ZM63.8323 120.136L164.224 150.627L157.831 171.678L57.4392 141.187L63.8323 120.136Z" fill="white"/>
</g>
<defs>
<clipPath id="clip0_251_20835">
<rect width="232.127" height="232.127" fill="white"/>
</clipPath>
</defs>
</svg>
